<svg width="308" height="105" viewBox="0 0 308 105" fill="none" xmlns="http://www.w3.org/2000/svg">
<path d="M52.3779 52.3785H20.7578C21.5398 50.9336 22.5071 49.6082 23.6389 48.4124C25.275 46.6686 27.1991 45.2735 29.3908 44.2172C31.5825 43.161 33.9389 42.6328 36.4187 42.6328C38.8985 42.6328 41.2445 43.1012 43.4362 44.0478C45.6382 44.9945 47.5521 46.3099 49.1984 47.984C50.4743 49.2694 51.5239 50.7343 52.3779 52.3785Z" fill="#005D7F"/>
<path d="M20.2812 69.9141H52.6113C51.7264 71.7376 50.5946 73.3519 49.226 74.757C47.5797 76.4311 45.6658 77.7564 43.4638 78.723C41.2721 79.6896 38.9261 80.1679 36.4463 80.1679C33.9665 80.1679 31.6102 79.6896 29.4185 78.723C27.2268 77.7564 25.3026 76.4311 23.6665 74.757C22.2672 73.3519 21.1456 71.7376 20.2812 69.9141Z" fill="#005D7F"/>
<path d="M54.5431 61.3898C54.5431 62.5457 54.4505 63.6718 54.2653 64.748H18.6425C18.4573 63.6718 18.375 62.5457 18.375 61.3898C18.375 60.0844 18.5088 58.789 18.7969 57.5234H54.183C54.4299 58.769 54.5431 60.0545 54.5431 61.3898Z" fill="#005D7F"/>
<path d="M52.3779 52.3785H20.7578C21.5398 50.9336 22.5071 49.6082 23.6389 48.4124C25.275 46.6686 27.1991 45.2735 29.3908 44.2172C31.5825 43.161 33.9389 42.6328 36.4187 42.6328C38.8985 42.6328 41.2445 43.1012 43.4362 44.0478C45.6382 44.9945 47.5521 46.3099 49.1984 47.984C50.4743 49.2694 51.5239 50.7343 52.3779 52.3785Z" fill="#7A5AF8"/>
<path d="M20.2812 69.9141H52.6113C51.7264 71.7376 50.5946 73.3519 49.226 74.757C47.5797 76.4311 45.6658 77.7564 43.4638 78.723C41.2721 79.6896 38.9261 80.1679 36.4463 80.1679C33.9665 80.1679 31.6102 79.6896 29.4185 78.723C27.2268 77.7564 25.3026 76.4311 23.6665 74.757C22.2672 73.3519 21.1456 71.7376 20.2812 69.9141Z" fill="#7A5AF8"/>
<path d="M54.5431 61.3898C54.5431 62.5457 54.4505 63.6718 54.2653 64.748H18.6425C18.4573 63.6718 18.375 62.5457 18.375 61.3898C18.375 60.0844 18.5088 58.789 18.7969 57.5234H54.183C54.4299 58.769 54.5431 60.0545 54.5431 61.3898Z" fill="#7A5AF8"/>
<path d="M118.117 83.5353C117.129 84.4122 116.069 85.2293 114.937 86.0066C113.805 86.7739 112.632 87.4515 111.398 88.0195C110.163 88.5875 108.897 89.0359 107.59 89.3747C106.284 89.7135 104.956 89.873 103.598 89.873C100.624 89.873 97.8255 89.3648 95.2119 88.3484C92.5983 87.3319 90.3037 85.8771 88.3384 84.0037C86.3731 82.1303 84.8194 79.8383 83.6875 77.1478C82.5556 74.4573 82 71.428 82 68.0798V42.2109H94.255V68.0698C94.255 69.6443 94.5019 71.0493 94.9958 72.285C95.4897 73.5206 96.1586 74.5669 97.0023 75.404C97.8461 76.251 98.8339 76.8887 99.9554 77.3272C101.087 77.7656 102.291 77.9849 103.588 77.9849C104.853 77.9849 106.047 77.7059 107.179 77.1379C108.311 76.5699 109.288 75.8225 110.132 74.8858C110.976 73.9591 111.634 72.9028 112.118 71.717C112.601 70.5411 112.838 69.3254 112.838 68.0698V42.2109H125.155V88.9961L118.117 83.5353Z" fill="#101828"/>
<path d="M172.237 89.0001H131.953L152.296 54.1828H131.953V42.3047H172.237L151.894 77.112H172.237V89.0001Z" fill="#101828"/>
<path d="M216.75 89.0001H176.477L196.819 54.1828H176.477V42.3047H216.75L196.408 77.112H216.75V89.0001Z" fill="#101828"/>
<path d="M235.879 88.9989H223.562V23.6094H235.879V44.2666C237.351 43.1904 238.873 42.4231 240.438 41.9747C242.002 41.5262 243.596 41.297 245.222 41.297C248.196 41.297 250.995 41.8451 253.608 42.9313C256.222 44.0274 258.506 45.5222 260.441 47.4354C262.375 49.3387 263.918 51.5708 265.04 54.1218C266.172 56.6729 266.728 59.3833 266.728 62.2731V89.0089H254.318V62.2632C254.318 62.2632 254.164 59.8815 253.691 58.7854C253.207 57.6893 252.548 56.7426 251.705 55.9255C250.861 55.1084 249.883 54.4706 248.772 54.0023C247.661 53.5339 246.467 53.3047 245.212 53.3047C243.915 53.3047 242.701 53.5339 241.559 54.0023C240.417 54.4706 239.419 55.1084 238.585 55.9255C237.742 56.7426 237.083 57.6992 236.599 58.7854C236.116 59.8815 235.879 61.0375 235.879 62.2632V88.9989Z" fill="#7A5AF8"/>
<path d="M287.801 88.9961H275.484V42.2109L282.522 47.7614C284.508 46.0175 286.762 44.6723 289.283 43.7256C291.804 42.7789 294.428 42.3106 297.134 42.3106H308V54.1887H297.134C295.837 54.1887 294.623 54.4179 293.481 54.8863C292.339 55.3546 291.341 55.9924 290.507 56.8095C289.663 57.6266 289.005 58.5832 288.521 59.6893C288.038 60.7954 287.801 61.9713 287.801 63.2269V88.9961Z" fill="#7A5AF8"/>
<path d="M69.9902 46.7951C68.0866 42.3408 65.4833 38.4844 62.2009 35.2159C58.9082 31.9474 55.0599 29.3964 50.6456 27.5728C48.9684 26.8753 47.2398 26.3173 45.4699 25.8888C46.7664 21.2053 51.1704 19.8799 51.4071 19.8102C52.2508 19.571 52.7344 18.7141 52.4978 17.8969C52.2508 17.0698 51.3659 16.5915 50.5222 16.8307C48.0321 17.5183 43.6898 20.0992 42.3316 25.2709C40.4177 24.982 38.4524 24.8325 36.4254 24.8325C34.779 24.8325 33.0915 25.0019 31.3628 25.3208C31.157 25.3606 30.9513 25.4005 30.7455 25.4404C29.4387 20.149 25.0244 17.5282 22.5137 16.8307C21.6597 16.5915 20.7851 17.0698 20.5381 17.8969C20.2912 18.7141 20.7851 19.571 21.6288 19.8102C21.6906 19.8301 26.465 21.2053 27.6586 26.2475C27.2161 26.387 26.7634 26.5365 26.3312 26.7059C24.7157 27.3137 23.2032 28.081 21.8038 29.0277C20.4044 29.9744 19.2211 31.0506 18.2435 32.2464L6.49277 11.3799L0 0V61.3937C0 66.7249 0.956937 71.6176 2.86052 76.0719C4.76411 80.5262 7.37768 84.3627 10.6807 87.5814C13.9939 90.81 17.8525 93.3212 22.2668 95.1248C25.3125 96.3804 28.5126 97.1875 31.8567 97.5762H31.867L36.4665 105L41.066 97.5762C44.4204 97.1975 47.6102 96.4103 50.6559 95.1945C55.0702 93.4308 58.9288 90.9495 62.2112 87.7408C65.4936 84.5421 68.0969 80.7056 70.0005 76.2314C71.904 71.7571 72.861 66.8245 72.861 61.3937C72.861 56.1123 71.904 51.2394 69.9902 46.7951ZM23.6456 48.4094C25.2817 46.6656 27.2058 45.2705 29.3975 44.2142C31.5892 43.1579 33.9455 42.6298 36.4254 42.6298C38.9052 42.6298 41.2512 43.0981 43.4429 44.0448C45.6449 44.9915 47.5587 46.3068 49.2051 47.9809C50.4604 49.2664 51.51 50.7213 52.364 52.3655H20.7542C21.5465 50.9305 22.5137 49.6052 23.6456 48.4094ZM49.2154 74.7466C47.569 76.4207 45.6552 77.746 43.4532 78.7126C41.2615 79.6792 38.9154 80.1575 36.4356 80.1575C33.9558 80.1575 31.5995 79.6792 29.4078 78.7126C27.2161 77.746 25.292 76.4207 23.6559 74.7466C22.2771 73.3416 21.1555 71.7272 20.2912 69.9037H52.6213C51.7158 71.7372 50.5839 73.3515 49.2154 74.7466ZM54.2676 64.7518H18.6448C18.4596 63.6756 18.3773 62.5496 18.3773 61.3937C18.3773 60.0883 18.5111 58.7928 18.7992 57.5273H54.1853C54.4322 58.7729 54.5454 60.0584 54.5454 61.3937C54.5454 62.5496 54.4528 63.6756 54.2676 64.7518Z" fill="#101828"/>
<path d="M31.4251 34.4313C32.5617 34.4313 33.483 33.539 33.483 32.4383C33.483 31.3376 32.5617 30.4453 31.4251 30.4453C30.2886 30.4453 29.3672 31.3376 29.3672 32.4383C29.3672 33.539 30.2886 34.4313 31.4251 34.4313Z" fill="#F7F7F7"/>
<path d="M41.7142 34.4313C42.8507 34.4313 43.7721 33.539 43.7721 32.4383C43.7721 31.3376 42.8507 30.4453 41.7142 30.4453C40.5776 30.4453 39.6562 31.3376 39.6562 32.4383C39.6562 33.539 40.5776 34.4313 41.7142 34.4313Z" fill="#F7F7F7"/>
</svg>
